<?xml version="1.0" encoding="UTF-8"?>
<!DOCTYPE svg PUBLIC "-//W3C//DTD SVG 1.1//EN" "http://www.w3.org/Graphics/SVG/1.1/DTD/svg11.dtd">
<!-- Creator: CorelDRAW -->
<svg xmlns="http://www.w3.org/2000/svg" xml:space="preserve" width="178px" height="178px" version="1.1" style="shape-rendering:geometricPrecision; text-rendering:geometricPrecision; image-rendering:optimizeQuality; fill-rule:evenodd; clip-rule:evenodd"
viewBox="0 0 2.06 2.06"
 xmlns:xlink="http://www.w3.org/1999/xlink"
 xmlns:xodm="http://www.corel.com/coreldraw/odm/2003">
 <defs>
  <style type="text/css">
   <![CDATA[
    .fil1 {fill:none}
    .fil0 {fill:#282C34}
   ]]>
  </style>
 </defs>
 <g id="Camada_x0020_1">
  <metadata id="CorelCorpID_0Corel-Layer"/>
  <path class="fil0" d="M1.22 0.51l0 0.01 0 0.06 0 0.23 0.33 0 0 0.01 0 0.03 0 0.66 0 0.04 -0.05 0 -0.28 0 -0.06 0 -0.58 0 -0.07 0 0 -0.06 0 -0.91 0 -0.06 0 -0.01 0.71 0zm0 0.34l0 0.64 0 0.02c0.09,0 0.19,0 0.28,0l0 -0.66 -0.28 0zm0.06 0.42l0.16 0 0 0.17 -0.16 0 0 -0.17zm0 -0.32l0.16 0 0 0.16 -0.16 0 0 -0.16zm-0.49 0.31l0.15 0 0 0.23 0.22 0 0 -0.91 -0.58 0 0 0.91 0.21 0 0 -0.23zm0.14 -0.28l0.16 0 0 0.16 -0.16 0 0 -0.16zm-0.29 0l0.16 0 0 0.16 -0.16 0 0 -0.16zm0.29 -0.33l0.16 0 0 0.16 -0.16 0 0 -0.16zm-0.29 0l0.16 0 0 0.16 -0.16 0 0 -0.16z"/>
  <rect class="fil1" width="2.06" height="2.06"/>
 </g>
</svg>
