<?xml version="1.0" encoding="UTF-8"?>
<!DOCTYPE svg PUBLIC "-//W3C//DTD SVG 1.1//EN" "http://www.w3.org/Graphics/SVG/1.1/DTD/svg11.dtd">
<!-- Creator: CorelDRAW -->
<svg xmlns="http://www.w3.org/2000/svg" xml:space="preserve" width="178px" height="178px" version="1.1" style="shape-rendering:geometricPrecision; text-rendering:geometricPrecision; image-rendering:optimizeQuality; fill-rule:evenodd; clip-rule:evenodd"
viewBox="0 0 2.12 2.12"
 xmlns:xlink="http://www.w3.org/1999/xlink"
 xmlns:xodm="http://www.corel.com/coreldraw/odm/2003">
 <defs>
  <style type="text/css">
   <![CDATA[
    .fil1 {fill:none}
    .fil0 {fill:#282C34}
   ]]>
  </style>
 </defs>
 <g id="Camada_x0020_1">
  <metadata id="CorelCorpID_0Corel-Layer"/>
  <path class="fil0" d="M1.42 0.53l0 0.01 0 0.05 0 0.94 0 0.06 -0.06 0 -0.6 0 -0.06 0 0 -0.06 0 -0.94 0 -0.05 0 -0.01 0.72 0zm-0.44 0.76l0.16 0 0 0.24 0.22 0 0 -0.94 -0.6 0 0 0.94 0.22 0 0 -0.24zm0.15 -0.29l0.16 0 0 0.17 -0.16 0 0 -0.17zm-0.3 0l0.17 0 0 0.17 -0.17 0 0 -0.17zm0.3 -0.33l0.16 0 0 0.16 -0.16 0 0 -0.16zm-0.3 0l0.17 0 0 0.16 -0.17 0 0 -0.16z"/>
  <rect class="fil1" width="2.12" height="2.12"/>
 </g>
</svg>
