<?xml version="1.0" encoding="UTF-8"?>
<!DOCTYPE svg PUBLIC "-//W3C//DTD SVG 1.1//EN" "http://www.w3.org/Graphics/SVG/1.1/DTD/svg11.dtd">
<!-- Creator: CorelDRAW -->
<svg xmlns="http://www.w3.org/2000/svg" xml:space="preserve" width="178px" height="178px" version="1.1" style="shape-rendering:geometricPrecision; text-rendering:geometricPrecision; image-rendering:optimizeQuality; fill-rule:evenodd; clip-rule:evenodd"
viewBox="0 0 2.01 2.01"
 xmlns:xlink="http://www.w3.org/1999/xlink"
 xmlns:xodm="http://www.corel.com/coreldraw/odm/2003">
 <defs>
  <style type="text/css">
   <![CDATA[
    .fil1 {fill:none}
    .fil0 {fill:#282C34}
   ]]>
  </style>
 </defs>
 <g id="Camada_x0020_1">
  <metadata id="CorelCorpID_0Corel-Layer"/>
  <path class="fil0" d="M0.8 0.49l0.12 0 0 -0.06 0.18 0 0 0.06 0.11 0 0 0.08 0.14 0 0 0.01 0 0.05 0 0.23 0.32 0 0 0 0 0.04 0 0.64 0 0.04 -0.04 0 -0.28 0 -0.06 0 -0.57 0 -0.06 0 -0.27 0 -0.05 0 0 -0.04 0 -0.64 0 -0.04 0 0 0.32 0 0 -0.23 0 -0.05 0 -0.01 0.14 0 0 -0.08zm-0.14 1.05l0 -0.02 0 -0.62 -0.27 0 0 0.64c0.09,0 0.18,0 0.27,0zm-0.06 -0.23l-0.15 0 0 0.16 0.15 0 0 -0.16zm0 -0.32l-0.15 0 0 0.16 0.15 0 0 -0.16zm0.75 -0.09l0 0.62 0 0.02c0.09,0 0.18,0 0.28,0l0 -0.64 -0.28 0zm0.06 0.41l0.15 0 0 0.16 -0.15 0 0 -0.16zm0 -0.32l0.15 0 0 0.16 -0.15 0 0 -0.16zm-0.48 0.3l0.15 0 0 0.23 0.21 0 0 -0.89 -0.57 0 0 0.89 0.21 0 0 -0.23zm0.14 -0.27l0.15 0 0 0.16 -0.15 0 0 -0.16zm-0.28 0l0.15 0 0 0.16 -0.15 0 0 -0.16zm0.28 -0.32l0.15 0 0 0.16 -0.15 0 0 -0.16zm-0.28 0l0.15 0 0 0.16 -0.15 0 0 -0.16z"/>
  <rect class="fil1" width="2.01" height="2.01"/>
 </g>
</svg>
