<?xml version="1.0" encoding="UTF-8"?>
<!DOCTYPE svg PUBLIC "-//W3C//DTD SVG 1.1//EN" "http://www.w3.org/Graphics/SVG/1.1/DTD/svg11.dtd">
<!-- Creator: CorelDRAW -->
<svg xmlns="http://www.w3.org/2000/svg" xml:space="preserve" width="46px" height="50px" version="1.1" style="shape-rendering:geometricPrecision; text-rendering:geometricPrecision; image-rendering:optimizeQuality; fill-rule:evenodd; clip-rule:evenodd"
viewBox="0 0 3.12 3.41"
 xmlns:xlink="http://www.w3.org/1999/xlink"
 xmlns:xodm="http://www.corel.com/coreldraw/odm/2003">
 <defs>
  <style type="text/css">
   <![CDATA[
    .fil0 {fill:#2644A1}
   ]]>
  </style>
 </defs>
 <g id="Camada_x0020_1">
  <metadata id="CorelCorpID_0Corel-Layer"/>
  <path class="fil0" d="M1.19 1.5l0.09 0c0.03,0 0.06,0.03 0.06,0.06l0 1.11c0,0.03 -0.03,0.06 -0.06,0.06l-0.09 0c-0.03,0 -0.06,-0.03 -0.06,-0.06l0 -1.11c0,-0.03 0.03,-0.06 0.06,-0.06zm0.74 0l-0.09 0c-0.03,0 -0.06,0.03 -0.06,0.06l0 1.11c0,0.03 0.03,0.06 0.06,0.06l0.09 0c0.03,0 0.06,-0.03 0.06,-0.06l0 -1.11c0,-0.03 -0.03,-0.06 -0.06,-0.06zm0.71 -0.41l-1.08 0 -0.46 0 -0.62 0c0,0.2 0.04,0.37 0.04,0.58l0.1 1.2c0.04,0.19 0.15,0.29 0.36,0.29l0.33 0 0.25 0 0.58 0c0.21,0 0.32,-0.1 0.36,-0.29l0.1 -1.2c0,-0.21 0.04,-0.38 0.04,-0.58zm-1.08 -0.53l0.45 0 0 -0.23 -0.45 0 -0.37 0 -0.08 0 0 0.23 0.45 0zm0 -0.56l0.53 0c0.25,0 0.25,0.19 0.25,0.33l0 0.23c0.15,0 0.3,0 0.44,0 0.08,0 0.16,0 0.24,0 0.06,0 0.1,0.06 0.1,0.11l0 0.42c-0.26,0 -0.22,0 -0.24,0.16 -0.02,0.31 -0.05,0.61 -0.07,0.92 -0.02,0.23 -0.01,0.47 -0.05,0.67 -0.03,0.25 -0.14,0.46 -0.44,0.54l-0.06 0.03 -0.7 0 -0.24 0 -0.46 0 -0.06 -0.03c-0.3,-0.08 -0.4,-0.29 -0.44,-0.54 -0.04,-0.2 -0.03,-0.44 -0.05,-0.67 -0.02,-0.31 -0.05,-0.61 -0.07,-0.92 -0.02,-0.16 0.03,-0.16 -0.24,-0.16l0 -0.42c0,-0.05 0.04,-0.11 0.1,-0.11 0.08,0 0.16,0 0.24,0 0.14,0 0.29,0 0.44,0l0 -0.23c0,-0.14 0,-0.33 0.25,-0.33l0.16 0 0.37 0z"/>
 </g>
</svg>
