<?xml version="1.0" encoding="UTF-8"?>
<!DOCTYPE svg PUBLIC "-//W3C//DTD SVG 1.1//EN" "http://www.w3.org/Graphics/SVG/1.1/DTD/svg11.dtd">
<!-- Creator: CorelDRAW -->
<svg xmlns="http://www.w3.org/2000/svg" xml:space="preserve" width="50px" height="50px" version="1.1" style="shape-rendering:geometricPrecision; text-rendering:geometricPrecision; image-rendering:optimizeQuality; fill-rule:evenodd; clip-rule:evenodd"
viewBox="0 0 4.59 4.61"
 xmlns:xlink="http://www.w3.org/1999/xlink"
 xmlns:xodm="http://www.corel.com/coreldraw/odm/2003">
 <defs>
  <style type="text/css">
   <![CDATA[
    .fil0 {fill:#2644A1;fill-rule:nonzero}
   ]]>
  </style>
 </defs>
 <g id="Camada_x0020_1">
  <metadata id="CorelCorpID_0Corel-Layer"/>
  <g id="_1854674361360">
   <g>
    <path class="fil0" d="M4.4 0.16l0 -0.01c-0.11,-0.1 -0.25,-0.15 -0.39,-0.15 -0.16,0 -0.32,0.07 -0.42,0.19l-2.06 2.24c-0.02,0.02 -0.03,0.05 -0.04,0.08l-0.24 0.72c-0.03,0.08 -0.01,0.17 0.04,0.25 0.05,0.07 0.13,0.11 0.22,0.11 0,0 0,0 0,0 0.04,0 0.08,-0.01 0.11,-0.02l0.7 -0.31c0.03,-0.01 0.05,-0.03 0.07,-0.05l2.05 -2.24c0.21,-0.24 0.2,-0.6 -0.04,-0.81zm-2.69 2.94l0.14 -0.43 0.02 -0.01 0.26 0.24 -0.01 0.02 -0.41 0.18zm2.44 -2.4l-1.75 1.91 -0.27 -0.25 1.75 -1.91c0.03,-0.03 0.08,-0.05 0.13,-0.05 0.04,0 0.09,0.01 0.12,0.04l0.01 0.01c0.07,0.06 0.07,0.18 0.01,0.25z"/>
    <path class="fil0" d="M4 1.83c-0.1,0 -0.19,0.09 -0.19,0.2l0 1.68c0,0.28 -0.23,0.5 -0.51,0.5l-2.4 0c-0.28,0 -0.5,-0.22 -0.5,-0.5l0 -2.38c0,-0.28 0.22,-0.51 0.5,-0.51l1.74 0c0.11,0 0.2,-0.09 0.2,-0.2 0,-0.1 -0.09,-0.19 -0.2,-0.19l-1.74 0c-0.5,0 -0.9,0.4 -0.9,0.9l0 2.38c0,0.5 0.4,0.9 0.9,0.9l2.4 0c0.5,0 0.9,-0.4 0.9,-0.9l0 -1.68c0,-0.11 -0.09,-0.2 -0.2,-0.2z"/>
   </g>
  </g>
 </g>
</svg>
