<?xml version="1.0" encoding="UTF-8"?>
<!DOCTYPE svg PUBLIC "-//W3C//DTD SVG 1.1//EN" "http://www.w3.org/Graphics/SVG/1.1/DTD/svg11.dtd">
<!-- Creator: CorelDRAW -->
<svg xmlns="http://www.w3.org/2000/svg" xml:space="preserve" width="178px" height="178px" version="1.1" style="shape-rendering:geometricPrecision; text-rendering:geometricPrecision; image-rendering:optimizeQuality; fill-rule:evenodd; clip-rule:evenodd"
viewBox="0 0 2.25 2.25"
 xmlns:xlink="http://www.w3.org/1999/xlink"
 xmlns:xodm="http://www.corel.com/coreldraw/odm/2003">
 <defs>
  <style type="text/css">
   <![CDATA[
    .fil1 {fill:none}
    .fil0 {fill:#282C34}
   ]]>
  </style>
 </defs>
 <g id="Camada_x0020_1">
  <metadata id="CorelCorpID_0Corel-Layer"/>
  <path class="fil0" d="M1.31 1.12l-0.28 -0.27 0.74 0 0.26 0.27 0.01 0 -0.73 0zm-0.34 -0.33l-0.27 -0.27 -0.61 0.6 0 0.07 0.07 0 0 0.54 1.93 -0.01 0 -0.53 0.07 0 0 -0.07 -0.05 0 -0.32 -0.33 -0.82 0zm1.05 0.4l0 0.46 -0.14 0 0 -0.34 -0.51 0 0 0.33 -0.12 0 0 -0.45 0.77 0zm-1.25 0.05l0.24 0 0 0.24 -0.24 0 0 -0.24zm-0.38 -0.01l0.23 0 0 0.41 0.56 0 0 -0.5 -0.48 -0.46 -0.47 0.46 0 0.5 0.16 0 0 -0.16 0 -0.24 0 -0.01zm-0.16 -0.55l0 0.21 0.21 -0.21 -0.21 0z"/>
  <rect class="fil1" width="2.25" height="2.25"/>
 </g>
</svg>
