<?xml version="1.0" encoding="UTF-8"?>
<!DOCTYPE svg PUBLIC "-//W3C//DTD SVG 1.1//EN" "http://www.w3.org/Graphics/SVG/1.1/DTD/svg11.dtd">
<!-- Creator: CorelDRAW -->
<svg xmlns="http://www.w3.org/2000/svg" xml:space="preserve" width="178px" height="178px" version="1.1" style="shape-rendering:geometricPrecision; text-rendering:geometricPrecision; image-rendering:optimizeQuality; fill-rule:evenodd; clip-rule:evenodd"
viewBox="0 0 2.32 2.32"
 xmlns:xlink="http://www.w3.org/1999/xlink"
 xmlns:xodm="http://www.corel.com/coreldraw/odm/2003">
 <defs>
  <style type="text/css">
   <![CDATA[
    .fil1 {fill:none}
    .fil0 {fill:#282C34}
   ]]>
  </style>
 </defs>
 <g id="Camada_x0020_1">
  <metadata id="CorelCorpID_0Corel-Layer"/>
  <path class="fil0" d="M0.54 1.16l0.62 -0.61 0.62 0.61 0 0.07 -0.08 0 0 0.54 -1.09 0 0 -0.54 -0.07 0 0 -0.07zm1.1 -0.45l0 0.22 -0.21 -0.22 0.21 0zm-0.4 0.57l0.24 0 0 0.24 -0.24 0 0 -0.24zm-0.39 0l0.24 0 0 0.4 0.55 0 0 -0.5 -0.48 -0.47 -0.48 0.47 0 0.5 0.17 0 0 -0.4z"/>
  <rect class="fil1" width="2.32" height="2.32"/>
 </g>
</svg>
