<?xml version="1.0" encoding="UTF-8"?>
<!DOCTYPE svg PUBLIC "-//W3C//DTD SVG 1.1//EN" "http://www.w3.org/Graphics/SVG/1.1/DTD/svg11.dtd">
<!-- Creator: CorelDRAW -->
<svg xmlns="http://www.w3.org/2000/svg" xml:space="preserve" width="178px" height="178px" version="1.1" style="shape-rendering:geometricPrecision; text-rendering:geometricPrecision; image-rendering:optimizeQuality; fill-rule:evenodd; clip-rule:evenodd"
viewBox="0 0 2.18 2.18"
 xmlns:xlink="http://www.w3.org/1999/xlink"
 xmlns:xodm="http://www.corel.com/coreldraw/odm/2003">
 <defs>
  <style type="text/css">
   <![CDATA[
    .fil1 {fill:none}
    .fil0 {fill:#282C34}
   ]]>
  </style>
 </defs>
 <g id="Camada_x0020_1">
  <metadata id="CorelCorpID_0Corel-Layer"/>
  <path class="fil0" d="M0.14 1.13l-0.06 0 0 -0.03 0.3 -0.28 0.56 0 0.16 -0.16 0.15 0.16 0.56 0 0.29 0.28 0 0.03 -0.06 0 0 0.39 -1.9 0 0 -0.39zm0.14 0.1l0.33 0 0 0.26 0.08 0 0 -0.36 -0.5 0 0 0.36 0.09 0 0 -0.26zm0.53 -0.04l0.14 0 0 0.17 -0.14 0 0 -0.17zm0.19 0.03l0.18 0 0 0.27 0.27 0 0 -0.39 -0.35 -0.36 -0.37 0.36 0 0.39 0.27 0 0 -0.27zm0.25 -0.03l0.12 0 0 0.18 -0.12 0 0 -0.18zm0.33 0.04l0.13 0 0 0.13 -0.13 0 0 -0.13zm0.2 0l0.13 0 0 0.13 -0.13 0 0 -0.13zm-1.58 -0.16l0.47 0 0.2 -0.19 -0.48 0 -0.19 0.19zm1.31 0.06l0.48 0 0 0.36 -0.48 0 0 -0.36zm-0.19 -0.25l0.19 0.2 0.49 0 -0.2 -0.2 -0.48 0z"/>
  <rect class="fil1" width="2.18" height="2.18"/>
 </g>
</svg>
